<?xml version="1.0" encoding="utf-8"?>
<!-- Generator: Adobe Illustrator 27.6.1, SVG Export Plug-In . SVG Version: 6.00 Build 0)  -->
<svg version="1.1" id="Layer_2_00000017490405075218094690000014790230857883440772_"
	 xmlns="http://www.w3.org/2000/svg" xmlns:xlink="http://www.w3.org/1999/xlink" x="0px" y="0px" viewBox="0 0 170.4 42"
	 style="enable-background:new 0 0 170.4 42;" xml:space="preserve">
<style type="text/css">
	.st0{fill:#FFFFFF;}
</style>
<g id="Layer_1-2">
	<g>
		<g>
			<path class="st0" d="M59.3,28.2c-1.2-0.7-2.2-1.7-3-2.9s-1.1-2.7-1.1-4.3s0.4-3,1.1-4.2c0.7-1.2,1.7-2.2,3-2.9
				c1.2-0.7,2.6-1.1,4.1-1.1c1.5,0,2.9,0.4,4.1,1.1c1.2,0.7,2.2,1.7,2.9,2.9s1.1,2.7,1.1,4.2s-0.4,3-1.1,4.3s-1.7,2.2-2.9,2.9
				c-1.2,0.7-2.6,1.1-4.1,1.1S60.5,28.9,59.3,28.2z M65.9,25.7c0.7-0.4,1.3-1.1,1.7-1.9c0.4-0.8,0.6-1.8,0.6-2.8s-0.2-2-0.6-2.8
				c-0.4-0.8-1-1.4-1.7-1.9c-0.7-0.4-1.6-0.6-2.5-0.6s-1.8,0.2-2.5,0.6c-0.7,0.4-1.3,1-1.7,1.9c-0.4,0.8-0.6,1.8-0.6,2.8
				s0.2,2,0.6,2.8s1,1.4,1.7,1.9c0.7,0.4,1.6,0.7,2.5,0.7S65.2,26.2,65.9,25.7z"/>
			<path class="st0" d="M77.8,16.7c0.7-0.4,1.6-0.6,2.5-0.6c1.1,0,2.1,0.3,2.9,0.8c0.9,0.5,1.6,1.3,2.1,2.3c0.5,1,0.8,2.1,0.8,3.5
				s-0.2,2.5-0.8,3.5s-1.2,1.8-2.1,2.3c-0.9,0.5-1.8,0.8-2.9,0.8c-0.9,0-1.7-0.2-2.4-0.6c-0.7-0.4-1.3-0.9-1.7-1.5v7.9H73V16.3h3.2
				v1.9C76.6,17.6,77.1,17.1,77.8,16.7z M82.4,20.7c-0.3-0.6-0.7-1-1.2-1.3s-1.1-0.4-1.7-0.4s-1.1,0.1-1.6,0.5s-0.9,0.7-1.2,1.3
				c-0.3,0.6-0.5,1.2-0.5,2s0.2,1.4,0.5,2s0.7,1,1.2,1.3s1.1,0.5,1.6,0.5s1.1-0.1,1.7-0.5s0.9-0.8,1.2-1.3c0.3-0.6,0.5-1.2,0.5-2
				S82.7,21.2,82.4,20.7L82.4,20.7z"/>
			<path class="st0" d="M99.2,23.7h-9.2c0.1,0.9,0.4,1.6,1,2.2s1.2,0.8,2.1,0.8c1.2,0,2-0.5,2.5-1.5h3.4c-0.4,1.2-1.1,2.2-2.1,3
				c-1,0.8-2.3,1.2-3.8,1.2c-1.2,0-2.3-0.3-3.3-0.8s-1.7-1.3-2.3-2.3s-0.8-2.1-0.8-3.5s0.3-2.5,0.8-3.5s1.3-1.8,2.2-2.3
				c1-0.5,2.1-0.8,3.3-0.8s2.3,0.3,3.2,0.8c0.9,0.5,1.7,1.3,2.2,2.2s0.8,2.1,0.8,3.3C99.2,22.9,99.2,23.3,99.2,23.7L99.2,23.7z
				 M95.9,21.5c0-0.8-0.3-1.5-0.9-2s-1.3-0.8-2.1-0.8c-0.8,0-1.4,0.2-2,0.7c-0.5,0.5-0.9,1.2-1,2H95.9z"/>
			<path class="st0" d="M111.3,17.6c0.9,1,1.4,2.3,1.4,4v7.5h-3.2V22c0-1-0.2-1.8-0.8-2.3c-0.5-0.5-1.2-0.8-2.1-0.8
				s-1.6,0.3-2.1,0.8s-0.8,1.3-0.8,2.3v7.1h-3.2V16.3h3.2v1.6c0.4-0.5,1-1,1.6-1.3c0.7-0.3,1.4-0.5,2.2-0.5
				C109.1,16.1,110.4,16.6,111.3,17.6L111.3,17.6z"/>
			<path class="st0" d="M117.1,27.4h5.6v1.7H115V13h2.1V27.4L117.1,27.4z"/>
			<path class="st0" d="M135.2,23.6h-10c0.1,1.2,0.5,2.2,1.3,2.9c0.8,0.7,1.7,1,2.8,1c0.9,0,1.6-0.2,2.2-0.6c0.6-0.4,1-1,1.3-1.7
				h2.2c-0.3,1.2-1,2.2-2,3c-1,0.8-2.2,1.1-3.7,1.1c-1.2,0-2.2-0.3-3.2-0.8c-0.9-0.5-1.7-1.3-2.2-2.3c-0.5-1-0.8-2.1-0.8-3.5
				s0.3-2.5,0.8-3.4c0.5-1,1.2-1.7,2.2-2.3c0.9-0.5,2-0.8,3.2-0.8s2.2,0.3,3.1,0.8s1.6,1.2,2.1,2.2s0.7,2,0.7,3.1
				C135.3,22.7,135.2,23.1,135.2,23.6L135.2,23.6z M132.6,19.8c-0.4-0.6-0.8-1-1.4-1.3c-0.6-0.3-1.3-0.5-2-0.5c-1.1,0-1.9,0.3-2.7,1
				s-1.2,1.6-1.3,2.8h7.9C133.2,21.1,133,20.4,132.6,19.8L132.6,19.8z"/>
			<path class="st0" d="M137.1,19.3c0.5-1,1.2-1.7,2.1-2.3c0.9-0.5,1.9-0.8,3-0.8s2,0.2,2.9,0.7c0.8,0.5,1.4,1.1,1.8,1.8v-2.3h2.1
				v12.6h-2.1v-2.4c-0.4,0.7-1,1.4-1.8,1.8s-1.8,0.7-2.8,0.7s-2.1-0.3-3-0.8s-1.6-1.3-2.1-2.3c-0.5-1-0.8-2.1-0.8-3.4
				S136.6,20.3,137.1,19.3L137.1,19.3z M146.4,20.3c-0.4-0.7-0.9-1.2-1.5-1.6s-1.4-0.6-2.1-0.6s-1.5,0.2-2.1,0.5
				c-0.6,0.4-1.1,0.9-1.5,1.6c-0.4,0.7-0.6,1.5-0.6,2.5s0.2,1.8,0.6,2.5s0.9,1.3,1.5,1.6s1.3,0.6,2.1,0.6s1.5-0.2,2.1-0.6
				c0.6-0.4,1.2-0.9,1.5-1.6c0.4-0.7,0.6-1.5,0.6-2.5S146.7,21,146.4,20.3L146.4,20.3z"/>
			<path class="st0" d="M155.2,16.8c0.7-0.4,1.5-0.6,2.5-0.6v2.2h-0.6c-2.3,0-3.5,1.3-3.5,3.8v6.9h-2.1V16.5h2.1v2.1
				C154,17.8,154.6,17.2,155.2,16.8L155.2,16.8z"/>
			<path class="st0" d="M169,17.6c0.9,0.9,1.4,2.3,1.4,4v7.5h-2.1V22c0-1.3-0.3-2.2-0.9-2.9s-1.5-1-2.6-1s-2,0.4-2.6,1
				c-0.6,0.7-1,1.7-1,3v7h-2.1V16.5h2.1v1.8c0.4-0.6,1-1.1,1.7-1.5c0.7-0.4,1.5-0.5,2.3-0.5C166.8,16.2,168,16.7,169,17.6L169,17.6z
				"/>
		</g>
		<rect x="44.7" class="st0" width="1.4" height="41.9"/>
		<path class="st0" d="M32.9,0H2.5C1.1,0,0,1.1,0,2.5v21.8C0,34.1,7.9,42,17.7,42s17.7-7.9,17.7-17.7V2.5C35.4,1.1,34.2,0,32.9,0
			L32.9,0z M13,21c-4.4,0-8-3.6-8-8s3.6-8,8-8s8,3.6,8,8S17.4,21,13,21z"/>
	</g>
</g>
</svg>
